<svg width="608" height="202" viewBox="0 0 608 202" fill="none" xmlns="http://www.w3.org/2000/svg">
<path d="M279.521 60.508L273.752 67.4598C266.505 61.8392 258.37 58.1415 246.685 58.1415C225.238 58.1415 207.932 76.3344 207.932 98.8167C207.932 121.003 225.238 139.048 247.868 139.048C257.926 139.048 267.244 135.942 274.048 130.174L279.669 136.534C270.646 144.521 260.293 147.627 247.129 147.627C219.913 147.627 198.762 125.736 198.762 98.8167C198.762 71.6013 220.209 49.5627 246.685 49.5627C260.884 49.5627 270.942 53.2604 279.521 60.508ZM326.398 147.627C306.134 147.627 290.9 131.061 290.9 110.502C290.9 90.09 306.134 73.5241 326.398 73.5241C346.662 73.5241 361.896 90.09 361.896 110.502C361.896 131.061 346.662 147.627 326.398 147.627ZM326.546 139.492C342.076 139.492 353.17 126.328 353.17 110.354C353.17 94.3794 342.076 81.6591 326.546 81.6591C310.867 81.6591 299.626 94.3794 299.626 110.354C299.626 126.328 310.867 139.492 326.546 139.492ZM382.243 146V51.1897H442.295V68.6431H400.732V91.5691H436.378V109.022H400.732V146H382.243ZM487.005 148.071C464.967 148.071 448.992 131.209 448.992 110.65C448.992 89.9421 464.375 73.0804 484.786 73.0804C505.05 73.0804 520.433 88.7588 520.433 109.17C520.433 111.389 520.285 113.904 519.989 115.087H467.481C469.256 124.997 476.799 132.096 487.745 132.096C494.844 132.096 500.909 128.99 505.05 124.701L514.368 136.977C509.044 143.19 498.986 148.071 487.005 148.071ZM485.082 88.463C476.06 88.463 469.848 94.6752 467.777 103.698H501.944C499.873 93.6399 493.513 88.463 485.082 88.463ZM569.193 148.071C547.155 148.071 531.181 131.209 531.181 110.65C531.181 89.9421 546.563 73.0804 566.975 73.0804C587.238 73.0804 602.621 88.7588 602.621 109.17C602.621 111.389 602.473 113.904 602.177 115.087H549.669C551.444 124.997 558.988 132.096 569.933 132.096C577.033 132.096 583.097 128.99 587.238 124.701L596.557 136.977C591.232 143.19 581.174 148.071 569.193 148.071ZM567.271 88.463C558.248 88.463 552.036 94.6752 549.965 103.698H584.132C582.062 93.6399 575.701 88.463 567.271 88.463Z" fill="#333132"/>
<path d="M151.827 154.47C145.425 143.385 135.711 135.635 128.21 135.635C126.652 135.635 125.258 135.986 124.059 136.679C116.939 140.791 117.64 155.879 125.577 169.627C133.515 183.376 146.243 191.515 153.354 187.418C160.466 183.306 159.772 168.218 151.835 154.47H151.827Z" fill="#00A657"/>
<path d="M74.7293 3.89449C76.8714 5.94308 81.6228 16.1159 85.8369 31.8269C90.0431 47.5457 91.0246 58.7312 90.1911 61.5743C88.0491 59.5257 83.2976 49.3529 79.0836 33.6341C74.8696 17.9152 73.8958 6.72981 74.7293 3.88672V3.89449Z" fill="#00A657"/>
<path d="M117.103 31.6635C121.668 14.6205 125.827 4.54112 127.299 3.26367C127.938 5.10974 126.505 15.9213 121.933 32.9565C117.368 49.9995 113.208 60.0788 111.736 61.3563C111.098 59.5102 112.531 48.6987 117.103 31.6635Z" fill="#00A657"/>
<path d="M100.979 0C102.522 2.53931 104.484 13.6157 104.484 29.9343C104.484 46.2529 102.529 57.3293 100.979 59.8686C99.437 57.3293 97.4741 46.2529 97.4741 29.9343C97.4741 13.6157 99.4292 2.53931 100.979 0Z" fill="#00A657"/>
<path d="M134.466 38.0741C142.388 24.3416 148.759 15.5475 151.423 12.9536C150.512 16.5601 146.08 26.4759 138.15 40.2084C130.228 53.9409 123.857 62.735 121.193 65.3289C122.104 61.7224 126.536 51.8144 134.466 38.0741Z" fill="#00A657"/>
<path d="M50.8082 14.7141C50.2318 16.5368 52.3974 26.5694 61.4641 42.2649C70.562 58.0304 78.172 64.9006 80.0181 65.2745C80.5945 63.5063 78.4135 53.4347 69.339 37.7237C60.2645 22.0127 52.6699 15.1114 50.816 14.7141H50.8082Z" fill="#00A657"/>
<path d="M71.3023 71.7008C71.4113 69.8547 66.6989 60.6867 53.8543 47.8499C41.0487 35.0365 32.0052 30.3474 30.0034 30.4253C29.9255 32.357 34.6303 41.4705 47.4281 54.2761C60.3194 67.1674 69.4095 71.8643 71.3023 71.7008Z" fill="#00A657"/>
<path d="M35.9154 72.0197C36.2503 72.2145 36.5853 72.3858 36.9202 72.565L37.668 72.97C44.8653 75.0264 51.6186 77.7994 56.5492 80.7204C62.4301 82.0679 64.4865 81.1099 64.7436 80.6659C65.0162 80.1985 64.7824 77.815 60.3269 73.1492C56.1752 68.8027 49.9672 64.1448 42.8322 60.0242C35.6972 55.9037 28.5543 52.858 22.7202 51.4326C20.4768 50.8873 18.553 50.6069 16.9951 50.6069C14.9777 50.6069 14.1598 51.0821 13.9962 51.3625C12.9602 53.154 19.1684 62.3376 35.8998 72.0041L35.9154 72.0197Z" fill="#00A657"/>
<path d="M4.21262 75.9456C4.07242 76.4675 4.91364 78.7108 10.4207 82.068C14.105 84.3113 18.9966 86.4767 24.5816 88.3462C26.4666 88.2371 28.1958 88.1826 29.8549 88.1826C40.2069 88.1826 50.0994 89.9663 56.3931 92.9574C59.6179 92.4433 60.685 91.532 60.8018 91.1114C60.9888 90.4181 59.9216 88.2371 54.547 84.9812C49.3827 81.8499 42.1932 78.9601 34.2948 76.8491C26.8327 74.8473 19.5107 73.749 13.6688 73.749H12.6405C6.19876 73.9048 4.34504 75.4315 4.20483 75.9534L4.21262 75.9456Z" fill="#00A657"/>
<path d="M29.8474 92.8484C11.971 92.8484 0.55957 98.0204 0.55957 101.58C0.55957 104.54 8.47357 108.536 21.2714 109.86C23.8574 108.91 26.4668 108.084 29.0295 107.391C39.0621 104.704 49.1026 103.87 55.9494 105.14C58.0057 103.933 59.1351 102.671 59.1351 101.572C59.1351 98.0126 47.7239 92.8406 29.8396 92.8406L29.8474 92.8484Z" fill="#00A657"/>
<path d="M48.7445 109.245C43.1596 109.245 36.7568 110.164 30.2449 111.917C22.331 114.035 15.2116 117.089 10.1875 120.508C6.09812 123.297 3.7458 126.21 4.20537 127.931C4.66494 129.653 8.15449 131 13.1007 131.374C15.531 131.561 18.3507 131.499 21.482 131.195C24.5899 128.617 28.0717 126.218 31.8184 124.052C39.3896 119.683 47.2255 116.762 53.901 115.819C56.0041 115.523 58.006 115.437 59.8677 115.585C60.67 114.464 60.9971 113.498 60.7946 112.766C60.3272 111.013 56.417 109.245 48.7367 109.245H48.7445Z" fill="#00A657"/>
<path d="M58.2009 120.166C57.0792 120.166 55.8486 120.259 54.5478 120.446C48.4643 121.303 41.2203 124.021 34.1554 128.095C18.4366 137.17 11.8312 148.012 14.0044 151.782C15.165 153.792 18.9741 154.555 24.1929 153.823C26.4128 153.512 28.8353 152.935 31.3824 152.117C33.8906 148.456 36.8583 144.897 40.2155 141.547C46.3924 135.362 53.2158 130.51 59.4161 127.877C61.2699 127.09 63.0926 126.514 64.853 126.163C65.297 124.644 65.2581 123.383 64.744 122.487C63.8794 120.991 61.5581 120.166 58.2087 120.166H58.2009Z" fill="#00A657"/>
<path d="M50.8084 154.75C55.1938 147.147 60.7164 140.76 66.348 136.772C68.4512 135.284 70.531 134.163 72.5329 133.446C72.3693 132.613 72.0654 131.958 71.6058 131.507C70.8892 130.79 69.7599 130.424 68.2488 130.424C66.3404 130.424 63.9101 131.024 61.2306 132.169C55.5678 134.568 49.2818 139.07 43.51 144.842C37.7459 150.606 33.2436 156.9 30.8368 162.562C28.7804 167.415 28.531 171.294 30.1746 172.938C31.8259 174.589 35.705 174.332 40.55 172.276C41.6249 171.824 42.8011 171.224 44.2421 170.414C45.5741 165.296 47.8329 159.891 50.8006 154.758L50.8084 154.75Z" fill="#00A657"/>
<path d="M66.5113 166.278C68.7858 157.804 72.4622 150.209 76.871 144.897C78.5379 142.887 80.2906 141.244 82.0821 140.021C81.5603 139.031 80.8825 138.291 80.0646 137.816C79.3247 137.388 78.4444 137.177 77.463 137.177C75.1417 137.177 72.2209 138.338 69.0585 140.581C63.9643 144.196 58.9244 150.053 54.8662 157.087C47.0613 170.601 45.1529 185.308 50.7846 188.556C53.7835 190.269 58.7998 188.509 64.2523 183.828C64.1277 178.344 64.9145 172.284 66.5191 166.278H66.5113Z" fill="#00A657"/>
<path d="M85.9542 192.528C83.6252 186.717 82.3944 179.785 82.3944 172.463C82.3944 159.899 86.0633 148.62 92.0221 142.739C91.5781 142.435 91.1339 142.225 90.69 142.1C90.3083 141.999 89.9112 141.944 89.4984 141.944C86.9201 141.944 83.812 143.946 80.7664 147.623C76.7783 152.429 73.429 159.392 71.3259 167.236C67.2832 182.309 69.246 196.999 75.5242 198.682C78.4919 199.476 82.2698 197.233 85.9464 192.52L85.9542 192.528Z" fill="#00A657"/>
<path d="M86.7559 172.712C86.7559 188.587 93.2677 202 100.979 202C104.352 202 107.655 199.313 110.318 194.421C106.416 189.358 103.324 182.838 101.369 175.532C99.0863 167.011 98.6889 158.497 100.239 151.557C100.901 148.597 101.922 146.011 103.269 143.853C102.49 143.565 101.727 143.417 100.979 143.417C93.2677 143.417 86.7559 156.83 86.7559 172.704V172.712Z" fill="#00A657"/>
<path d="M134.614 187.52C129.582 183.718 124.986 178.344 121.302 171.964C115.265 161.503 112.897 150.466 114.891 142.24C114.479 142.17 114.105 142.131 113.754 142.131C113.17 142.131 112.594 142.209 112.041 142.357C108.644 143.261 106.074 146.898 104.804 152.585C103.41 158.8 103.792 166.527 105.887 174.332C110 189.669 119.775 200.956 127.206 198.939C130.789 197.981 133.477 193.829 134.622 187.512L134.614 187.52Z" fill="#00A657"/>
</svg>
